<?xml version="1.0" standalone="no"?>
<!DOCTYPE svg PUBLIC "-//W3C//DTD SVG 20010904//EN"
 "http://www.w3.org/TR/2001/REC-SVG-20010904/DTD/svg10.dtd">
<svg version="1.0" xmlns="http://www.w3.org/2000/svg"
 width="512.000000pt" height="512.000000pt" viewBox="0 0 512.000000 512.000000"
 preserveAspectRatio="xMidYMid meet">

<g transform="translate(0.000000,512.000000) scale(0.100000,-0.100000)"
fill="#000000" stroke="none">
<path d="M631 4824 c-30 -8 -76 -26 -102 -41 -59 -31 -148 -123 -178 -181 -54
-105 -51 -5 -51 -2042 0 -2037 -3 -1937 51 -2042 30 -58 119 -150 177 -181
111 -60 -7 -57 2032 -57 2015 0 1917 -2 2022 51 105 53 203 184 227 302 8 36
10 623 9 1957 l-3 1905 -23 57 c-47 117 -143 213 -260 260 l-57 23 -1895 2
c-1633 2 -1902 0 -1949 -13z m3884 -107 c78 -36 146 -104 182 -181 l28 -61 3
-262 3 -263 -2170 0 -2171 0 0 230 c0 236 8 306 42 373 43 85 133 158 227 183
36 10 456 12 1921 11 l1875 -2 60 -28z m215 -2439 c0 -1273 -3 -1584 -14
-1629 -25 -110 -98 -197 -205 -248 l-56 -26 -1895 0 -1895 0 -61 28 c-77 36
-145 104 -181 182 l-28 60 -3 1603 -2 1602 2170 0 2170 0 0 -1572z"/>
<path d="M799 4530 c-121 -21 -187 -157 -129 -270 55 -109 206 -129 292 -39
125 132 16 340 -163 309z m99 -126 c34 -39 30 -95 -10 -129 -26 -22 -39 -26
-67 -21 -69 11 -104 89 -65 144 34 48 102 51 142 6z"/>
<path d="M1275 4533 c-53 -9 -67 -16 -101 -45 -87 -76 -87 -200 -1 -275 88
-77 209 -61 274 36 72 107 13 253 -112 279 -22 4 -49 6 -60 5z m73 -118 c37
-31 46 -65 28 -108 -33 -80 -150 -68 -172 18 -13 53 36 114 93 115 12 0 35
-11 51 -25z"/>
<path d="M1737 4525 c-56 -14 -93 -45 -118 -100 -36 -78 -19 -156 44 -212 32
-28 90 -53 122 -53 32 0 90 25 122 53 81 71 85 183 9 265 -44 50 -107 66 -179
47z m92 -100 c74 -38 58 -150 -24 -171 -54 -13 -115 38 -115 97 0 27 62 89 89
89 12 0 35 -7 50 -15z"/>
<path d="M2608 4365 c-9 -21 -8 -28 7 -45 18 -20 30 -20 905 -20 676 0 889 3
898 12 7 7 12 21 12 33 0 12 -5 26 -12 33 -9 9 -224 12 -905 12 l-893 0 -12
-25z"/>
<path d="M782 3468 c-9 -9 -12 -185 -12 -729 0 -639 2 -719 16 -733 14 -14
190 -16 1784 -16 1594 0 1770 2 1784 16 14 14 16 94 16 733 0 544 -3 720 -12
729 -17 17 -3559 17 -3576 0z m3498 -728 l0 -650 -1710 0 -1710 0 0 650 0 650
1710 0 1710 0 0 -650z"/>
<path d="M2240 3091 c-6 -12 -10 -132 -10 -320 0 -288 1 -302 20 -321 11 -11
25 -20 30 -20 6 0 19 9 30 20 19 19 20 33 20 314 0 167 -4 306 -10 320 -12 33
-64 37 -80 7z"/>
<path d="M1642 3068 c-17 -17 -17 -599 0 -616 8 -8 62 -12 178 -12 158 0 169
1 217 26 66 32 98 90 91 164 -6 59 -28 95 -75 122 l-35 21 25 21 c36 30 47 58
47 119 0 68 -28 113 -90 145 -40 20 -59 22 -195 22 -104 0 -155 -4 -163 -12z
m319 -93 c39 -21 53 -57 38 -102 -16 -51 -50 -63 -174 -63 l-105 0 0 90 0 90
105 0 c76 0 114 -4 136 -15z m24 -269 c37 -16 55 -42 55 -81 0 -73 -47 -97
-202 -103 l-118 -4 0 101 0 101 115 0 c77 0 127 -5 150 -14z"/>
<path d="M2600 2911 c-81 -25 -131 -74 -155 -153 -19 -66 -19 -101 1 -169 62
-209 377 -213 444 -4 32 99 -2 237 -71 286 -58 41 -156 59 -219 40z m147 -101
c44 -26 63 -68 63 -135 0 -84 -35 -137 -102 -155 -114 -31 -208 75 -178 201
17 71 63 109 133 109 34 0 63 -7 84 -20z"/>
<path d="M3148 2911 c-44 -14 -96 -50 -118 -81 -34 -47 -52 -138 -40 -200 31
-163 204 -243 334 -155 l36 24 0 -37 c0 -65 -19 -111 -53 -132 -42 -26 -126
-26 -199 -1 -62 21 -88 14 -88 -24 0 -32 29 -50 110 -71 130 -33 232 -4 285
81 l30 48 3 259 c2 194 0 263 -9 274 -17 21 -62 13 -73 -12 l-10 -22 -37 25
c-41 27 -125 39 -171 24z m145 -92 c59 -31 67 -47 67 -140 0 -85 -1 -88 -30
-113 -108 -90 -250 -28 -250 109 0 60 30 118 72 138 38 19 110 22 141 6z"/>
<path d="M812 1688 c-15 -15 -15 -51 0 -66 17 -17 2649 -17 2666 0 7 7 12 21
12 33 0 12 -5 26 -12 33 -17 17 -2649 17 -2666 0z"/>
<path d="M3679 1679 c-8 -16 -8 -28 0 -45 l11 -24 328 0 c345 0 352 1 352 45
0 44 -7 45 -352 45 -324 0 -327 0 -339 -21z"/>
<path d="M818 1259 c-25 -14 -22 -55 4 -73 20 -14 93 -16 600 -16 350 0 587 4
602 10 20 7 26 17 26 38 0 15 -5 33 -12 40 -16 16 -1194 17 -1220 1z"/>
<path d="M2248 1259 c-11 -6 -18 -22 -18 -40 0 -22 6 -32 26 -39 16 -6 408
-10 1047 -10 909 0 1025 2 1045 16 27 19 29 60 3 74 -27 14 -2079 13 -2103 -1z"/>
<path d="M812 818 c-18 -18 -14 -56 7 -68 13 -7 587 -10 1784 -10 1928 0 1792
-4 1785 57 l-3 28 -1780 3 c-1377 1 -1784 -1 -1793 -10z"/>
</g>
</svg>
